<?xml version="1.0" encoding="utf-8"?>
<!-- Generator: Adobe Illustrator 22.0.0, SVG Export Plug-In . SVG Version: 6.00 Build 0)  -->
<svg version="1.1" xmlns="http://www.w3.org/2000/svg" xmlns:xlink="http://www.w3.org/1999/xlink" x="0px" y="0px"
	 viewBox="0 0 1024 1024" style="enable-background:new 0 0 1024 1024;" xml:space="preserve">
<style type="text/css">
	.st0{fill:#BBEEFF;}
	.st1{fill:#772288;}
</style>
<path class="st0" d="M351.3,150.1c0,0-305.6-97.9-187.1,261s163.1,200.9,173.4,144.2s12-223.2,56.7-211.2s146.6,13.7,207.2-42.9
	c60.6-56.7,28-120.2,16-139.1c-12-18.9-70.4-43.3-123.6-24.2S383.3,157.6,351.3,150.1z"/>
<path class="st1" d="M672.7,873.9c0,0,305.6,97.9,187.1-261S696.7,412.1,686.4,468.7c-10.3,56.7-12,223.2-56.7,211.2
	s-146.6-13.7-207.2,42.9s-28,120.2-16,139.1c12,18.9,70.4,43.3,123.6,24.2C583.4,867,640.7,866.4,672.7,873.9z"/>
</svg>
